<svg id="svg" version="1.1" xmlns="http://www.w3.org/2000/svg" xmlns:xlink="http://www.w3.org/1999/xlink" width="400" height="397.7464788732394" viewBox="0, 0, 400,397.7464788732394"><g id="svgg"><path id="path0" d="M163.624 8.108 C 163.353 8.435,161.899 8.766,160.000 8.931 C 158.257 9.083,156.727 9.375,156.600 9.579 C 156.474 9.783,155.060 9.950,153.458 9.950 C 151.354 9.950,150.408 10.116,150.050 10.547 C 149.736 10.925,148.858 11.144,147.662 11.144 C 146.465 11.144,145.587 11.364,145.274 11.741 C 145.001 12.070,144.461 12.338,144.073 12.338 C 143.686 12.338,143.266 12.607,143.140 12.935 C 142.985 13.339,142.351 13.532,141.182 13.532 C 139.512 13.532,136.431 14.696,135.922 15.519 C 135.786 15.740,134.890 15.920,133.930 15.920 C 132.971 15.920,132.076 16.100,131.940 16.318 C 131.805 16.537,130.880 16.716,129.885 16.716 C 128.474 16.716,127.742 16.980,126.567 17.910 C 125.533 18.729,124.616 19.104,123.648 19.104 C 122.871 19.104,122.125 19.284,121.990 19.502 C 121.855 19.721,121.306 19.900,120.771 19.900 C 120.236 19.900,119.130 20.259,118.313 20.697 C 117.496 21.134,116.539 21.493,116.186 21.493 C 115.172 21.493,112.905 22.753,112.110 23.758 C 111.621 24.378,110.967 24.677,110.102 24.677 C 109.129 24.677,108.442 25.062,107.264 26.269 C 106.409 27.144,105.483 27.861,105.207 27.861 C 104.930 27.861,104.092 28.398,103.344 29.055 C 102.596 29.711,101.763 30.249,101.493 30.249 C 101.222 30.249,100.389 30.786,99.641 31.443 C 98.893 32.100,98.063 32.643,97.797 32.650 C 97.531 32.657,96.602 33.374,95.732 34.242 C 94.862 35.110,93.949 35.821,93.702 35.821 C 93.257 35.821,92.108 36.775,88.884 39.821 C 87.969 40.686,87.097 41.393,86.946 41.393 C 86.796 41.393,86.060 41.930,85.312 42.587 C 84.564 43.244,83.718 43.781,83.431 43.781 C 83.144 43.781,82.568 44.164,82.151 44.631 C 81.734 45.099,80.899 45.693,80.295 45.950 C 79.691 46.208,76.173 49.407,72.478 53.060 C 68.782 56.713,65.518 59.701,65.224 59.701 C 64.478 59.701,56.517 67.709,56.517 68.461 C 56.517 69.236,50.922 74.827,49.576 75.396 C 49.023 75.630,46.329 78.045,43.589 80.764 C 40.849 83.482,38.607 85.624,38.607 85.524 C 38.607 85.125,40.199 82.252,40.770 81.621 C 41.104 81.252,42.461 78.810,43.785 76.196 C 45.108 73.582,46.410 71.264,46.678 71.045 C 46.945 70.826,47.497 69.930,47.905 69.055 C 48.312 68.179,48.805 67.194,49.000 66.866 C 49.195 66.537,49.520 65.910,49.721 65.473 C 49.923 65.035,50.818 63.806,51.710 62.743 C 52.603 61.679,53.333 60.591,53.333 60.325 C 53.333 60.058,53.781 59.420,54.328 58.905 C 54.876 58.391,55.323 57.739,55.323 57.457 C 55.323 57.174,55.816 56.355,56.418 55.636 C 59.046 52.497,59.601 49.751,57.608 49.751 C 56.563 49.751,42.587 63.484,42.587 64.511 C 42.587 64.863,42.204 65.491,41.736 65.908 C 41.268 66.325,40.639 67.204,40.337 67.861 C 39.405 69.892,39.206 70.161,35.646 74.187 C 35.085 74.821,34.627 75.563,34.627 75.836 C 34.627 76.109,34.398 76.421,34.118 76.528 C 33.839 76.635,33.093 77.774,32.461 79.058 C 31.829 80.342,30.625 82.231,29.785 83.255 C 28.946 84.280,28.259 85.377,28.259 85.694 C 28.259 86.011,27.990 86.494,27.662 86.766 C 27.333 87.039,27.065 87.576,27.065 87.960 C 27.065 88.344,26.796 88.882,26.468 89.154 C 26.139 89.427,25.871 89.992,25.871 90.409 C 25.871 90.827,25.602 91.272,25.274 91.398 C 24.914 91.536,24.677 92.137,24.677 92.909 C 24.677 93.751,24.345 94.501,23.709 95.098 C 23.176 95.599,22.626 96.692,22.484 97.533 C 22.342 98.372,21.972 99.270,21.660 99.528 C 21.349 99.787,21.095 100.230,21.095 100.514 C 21.095 100.999,19.938 103.443,19.502 103.881 C 19.067 104.318,17.910 106.763,17.910 107.247 C 17.910 107.531,17.642 107.986,17.313 108.259 C 16.985 108.531,16.716 109.349,16.716 110.075 C 16.716 110.801,16.537 111.507,16.318 111.642 C 16.100 111.777,15.920 112.510,15.920 113.270 C 15.920 114.131,15.695 114.738,15.323 114.881 C 14.945 115.026,14.725 115.640,14.724 116.560 C 14.723 117.357,14.454 118.523,14.127 119.150 C 13.800 119.777,13.532 120.583,13.531 120.941 C 13.530 121.299,12.993 122.667,12.338 123.980 C 11.541 125.580,11.147 126.967,11.146 128.183 C 11.145 129.181,10.881 130.345,10.560 130.770 C 10.239 131.195,9.964 131.990,9.950 132.537 C 9.936 133.085,9.662 133.880,9.341 134.305 C 9.019 134.730,8.756 135.570,8.756 136.172 C 8.756 136.774,8.590 137.369,8.386 137.495 C 8.182 137.621,7.893 138.709,7.743 139.912 C 7.592 141.115,7.311 142.198,7.118 142.317 C 6.924 142.437,6.766 143.348,6.766 144.341 C 6.766 145.335,6.514 146.713,6.207 147.403 C 5.899 148.092,5.544 149.898,5.419 151.415 C 5.293 152.931,5.008 154.355,4.784 154.579 C 4.561 154.802,4.378 156.808,4.378 159.036 C 4.378 162.151,4.240 163.201,3.781 163.582 C 3.302 163.980,3.184 165.190,3.184 169.720 C 3.184 173.593,3.034 175.514,2.704 175.843 C 2.377 176.170,2.171 178.686,2.057 183.749 C 1.895 190.951,1.861 191.202,0.945 192.051 C 0.001 192.927,-0.473 196.219,0.346 196.219 C 0.536 196.219,0.773 199.074,0.874 202.563 C 0.978 206.181,1.239 209.131,1.481 209.429 C 1.723 209.725,1.969 212.478,2.053 215.806 C 2.151 219.752,2.360 221.823,2.692 222.154 C 3.045 222.507,3.184 224.582,3.184 229.484 C 3.184 235.075,3.293 236.411,3.781 236.816 C 4.143 237.116,4.378 237.988,4.378 239.030 C 4.378 239.976,4.534 240.845,4.724 240.963 C 4.914 241.080,5.192 242.422,5.342 243.945 C 5.492 245.468,5.796 246.775,6.017 246.848 C 6.239 246.922,6.514 247.784,6.630 248.765 C 6.745 249.745,7.092 251.112,7.400 251.801 C 7.708 252.491,7.960 253.421,7.960 253.868 C 7.960 254.314,8.126 254.782,8.328 254.906 C 8.530 255.031,8.821 255.708,8.975 256.409 C 9.266 257.735,9.402 258.071,10.490 260.161 C 10.850 260.851,11.144 261.871,11.144 262.426 C 11.144 262.981,11.300 263.532,11.490 263.649 C 11.680 263.767,11.949 264.568,12.086 265.430 C 12.224 266.293,12.472 267.058,12.636 267.131 C 13.053 267.316,14.328 269.804,14.328 270.431 C 14.328 270.715,14.583 271.159,14.894 271.417 C 15.206 271.675,15.579 272.592,15.725 273.454 C 15.871 274.316,16.153 275.122,16.353 275.245 C 16.553 275.369,16.718 275.773,16.721 276.143 C 16.723 276.513,17.419 277.541,18.266 278.427 C 19.114 279.313,20.186 280.869,20.649 281.886 C 21.112 282.902,21.670 283.844,21.889 283.979 C 22.109 284.115,22.289 284.552,22.289 284.950 C 22.289 285.348,22.557 285.897,22.886 286.169 C 23.214 286.442,23.483 286.967,23.483 287.337 C 23.483 287.708,24.020 288.525,24.677 289.154 C 25.333 289.783,25.871 290.595,25.871 290.958 C 25.871 291.321,26.229 291.942,26.667 292.339 C 27.105 292.735,27.921 294.027,28.480 295.209 C 29.039 296.391,29.836 297.696,30.249 298.110 C 30.663 298.524,31.459 299.812,32.017 300.974 C 32.575 302.135,33.212 303.398,33.432 303.781 C 33.651 304.164,34.011 304.791,34.231 305.174 C 34.452 305.557,34.733 306.139,34.857 306.468 C 34.981 306.796,35.250 307.333,35.454 307.662 C 35.659 307.990,35.934 308.527,36.065 308.856 C 37.027 311.257,37.698 312.362,38.863 313.461 C 39.598 314.154,40.199 314.929,40.199 315.184 C 40.199 315.439,40.468 315.750,40.796 315.876 C 41.124 316.002,41.393 316.333,41.393 316.611 C 41.393 316.889,41.662 317.339,41.990 317.612 C 42.318 317.884,42.587 318.375,42.587 318.703 C 42.587 319.030,43.124 319.910,43.781 320.658 C 44.438 321.406,44.975 322.210,44.975 322.446 C 44.975 322.681,46.788 324.773,49.003 327.093 C 51.218 329.413,53.444 331.966,53.949 332.765 C 54.453 333.565,55.423 334.646,56.104 335.169 C 59.066 337.442,60.177 338.497,60.727 339.562 C 61.050 340.186,61.547 340.697,61.831 340.697 C 62.429 340.697,64.080 342.345,64.080 342.941 C 64.080 343.478,65.801 345.075,66.380 345.075 C 66.632 345.075,67.450 345.612,68.198 346.269 C 68.946 346.925,69.727 347.463,69.933 347.463 C 70.140 347.463,70.740 347.922,71.267 348.483 C 71.794 349.043,72.855 349.884,73.625 350.350 C 74.395 350.816,75.388 351.578,75.832 352.042 C 76.276 352.506,77.241 353.233,77.976 353.657 C 78.711 354.081,80.019 355.100,80.883 355.920 C 81.746 356.741,82.693 357.413,82.986 357.413 C 83.280 357.413,84.474 358.318,85.641 359.425 C 87.109 360.818,89.237 362.160,92.561 363.788 C 95.201 365.081,97.692 366.504,98.096 366.950 C 98.499 367.396,99.225 367.761,99.707 367.761 C 100.915 367.761,104.888 369.912,107.136 371.783 C 108.160 372.636,109.249 373.333,109.554 373.333 C 109.860 373.333,110.531 373.781,111.045 374.328 C 111.590 374.908,112.423 375.323,113.043 375.323 C 113.628 375.323,114.520 375.682,115.025 376.119 C 115.530 376.557,116.336 376.915,116.818 376.915 C 117.299 376.915,118.535 377.363,119.564 377.910 C 120.593 378.458,121.861 378.905,122.381 378.905 C 122.901 378.905,123.595 379.174,123.923 379.502 C 124.252 379.831,125.051 380.100,125.700 380.100 C 126.382 380.100,126.977 380.352,127.109 380.697 C 127.235 381.025,127.770 381.294,128.297 381.294 C 128.824 381.294,129.479 381.562,129.751 381.891 C 130.024 382.219,130.728 382.488,131.316 382.488 C 131.904 382.488,132.733 382.751,133.158 383.072 C 133.583 383.393,134.244 383.662,134.627 383.669 C 135.010 383.676,135.323 383.859,135.323 384.075 C 135.323 384.291,136.044 384.583,136.924 384.724 C 137.805 384.865,138.621 385.136,138.739 385.326 C 138.856 385.516,139.995 385.672,141.268 385.672 C 142.841 385.672,143.743 385.863,144.080 386.269 C 144.352 386.597,145.158 386.866,145.871 386.866 C 146.583 386.866,147.389 387.134,147.662 387.463 C 147.934 387.791,148.726 388.060,149.422 388.060 C 150.117 388.060,150.889 388.262,151.136 388.509 C 151.383 388.756,152.896 389.047,154.499 389.156 C 156.102 389.266,157.592 389.495,157.811 389.667 C 158.030 389.838,158.883 390.104,159.706 390.258 C 160.529 390.412,161.301 390.697,161.421 390.891 C 161.541 391.085,162.042 391.244,162.534 391.244 C 163.027 391.244,163.778 391.507,164.203 391.828 C 164.627 392.150,165.804 392.418,166.817 392.425 C 167.955 392.433,168.848 392.666,169.154 393.035 C 169.511 393.465,170.456 393.632,172.537 393.632 C 174.619 393.632,175.563 393.799,175.920 394.229 C 176.278 394.660,177.225 394.826,179.329 394.826 C 180.931 394.826,182.352 395.005,182.488 395.224 C 182.635 395.462,185.262 395.622,189.029 395.622 C 194.140 395.622,195.419 395.734,195.821 396.219 C 196.478 397.010,206.525 397.097,207.303 396.318 C 207.655 395.966,209.967 395.784,215.243 395.693 C 219.337 395.622,222.857 395.398,223.065 395.195 C 223.273 394.992,224.437 394.820,225.652 394.813 C 226.960 394.806,228.176 394.562,228.633 394.216 C 229.150 393.826,230.375 393.632,232.327 393.632 C 234.557 393.632,235.303 393.490,235.478 393.035 C 235.648 392.591,236.354 392.438,238.228 392.438 C 239.615 392.438,240.849 392.275,240.972 392.077 C 241.095 391.879,242.090 391.593,243.184 391.443 C 244.278 391.292,245.264 391.022,245.375 390.843 C 245.486 390.664,246.291 390.396,247.164 390.249 C 248.038 390.101,248.853 389.817,248.977 389.617 C 249.100 389.417,249.527 389.254,249.925 389.254 C 250.323 389.254,250.872 388.985,251.144 388.657 C 251.417 388.328,252.121 388.060,252.709 388.060 C 253.297 388.060,254.126 387.797,254.551 387.475 C 254.976 387.154,255.682 386.885,256.119 386.877 C 256.557 386.869,257.990 386.327,259.303 385.672 C 260.617 385.017,261.996 384.480,262.369 384.479 C 262.742 384.478,264.407 383.761,266.070 382.886 C 268.071 381.831,269.608 381.294,270.617 381.294 C 271.486 381.294,272.354 381.037,272.637 380.697 C 272.909 380.368,273.558 380.100,274.079 380.100 C 274.599 380.100,275.025 379.920,275.025 379.701 C 275.025 379.483,275.876 379.302,276.915 379.301 C 277.955 379.300,279.282 379.050,279.864 378.746 C 280.447 378.443,281.835 378.069,282.949 377.915 C 284.063 377.762,284.975 377.490,284.975 377.311 C 284.975 377.132,285.681 376.866,286.544 376.720 C 287.407 376.574,288.325 376.201,288.583 375.889 C 288.841 375.578,289.378 375.323,289.776 375.323 C 290.175 375.323,290.611 375.144,290.746 374.925 C 290.882 374.706,291.506 374.527,292.134 374.527 C 292.763 374.527,293.545 374.259,293.873 373.930 C 294.202 373.602,294.707 373.330,294.996 373.327 C 295.286 373.323,296.149 372.788,296.915 372.137 C 297.682 371.486,298.525 370.773,298.789 370.552 C 299.054 370.330,299.435 370.149,299.636 370.149 C 299.837 370.149,300.225 369.881,300.498 369.552 C 300.770 369.224,301.307 368.955,301.692 368.955 C 302.076 368.955,302.613 368.687,302.886 368.358 C 303.158 368.030,303.684 367.761,304.054 367.761 C 304.424 367.761,305.241 367.224,305.871 366.567 C 306.500 365.910,307.303 365.373,307.655 365.373 C 308.008 365.373,308.996 364.657,309.851 363.781 C 310.706 362.905,311.631 362.189,311.907 362.189 C 312.183 362.189,314.357 360.264,316.737 357.910 C 321.909 352.797,326.384 348.657,326.738 348.657 C 327.067 348.657,339.861 335.564,342.488 332.540 C 343.582 331.280,345.060 329.638,345.771 328.892 C 346.483 328.146,347.065 327.363,347.065 327.152 C 347.065 326.941,348.274 325.498,349.751 323.945 C 351.287 322.330,352.890 320.156,353.492 318.869 C 354.072 317.630,355.192 316.000,355.980 315.245 C 356.768 314.491,357.413 313.587,357.413 313.237 C 357.413 312.886,358.109 311.920,358.959 311.090 C 359.962 310.110,360.584 309.092,360.731 308.187 C 360.855 307.420,361.317 306.481,361.757 306.099 C 362.197 305.718,362.742 304.973,362.969 304.444 C 363.196 303.915,363.561 303.169,363.780 302.786 C 364.000 302.403,364.359 301.776,364.580 301.393 C 364.800 301.010,365.089 300.428,365.222 300.100 C 365.355 299.771,366.877 296.654,368.603 293.173 C 370.329 289.692,371.741 286.625,371.741 286.356 C 371.741 286.088,372.010 285.646,372.338 285.373 C 372.667 285.101,372.935 284.563,372.935 284.179 C 372.935 283.795,373.182 283.276,373.483 283.026 C 373.784 282.776,374.144 281.859,374.283 280.988 C 374.423 280.116,374.714 279.403,374.930 279.403 C 375.146 279.403,375.323 279.067,375.323 278.656 C 375.323 278.245,375.592 277.685,375.920 277.413 C 376.249 277.140,376.517 276.480,376.517 275.945 C 376.517 275.410,376.950 274.402,377.479 273.705 C 378.008 273.008,378.565 271.764,378.718 270.941 C 378.871 270.118,379.155 269.346,379.349 269.226 C 379.543 269.106,379.701 268.669,379.701 268.255 C 379.701 267.841,379.925 267.359,380.199 267.184 C 380.996 266.674,382.090 264.312,382.090 263.101 C 382.090 262.489,382.339 261.781,382.645 261.527 C 382.950 261.274,383.313 260.401,383.452 259.588 C 383.591 258.775,383.808 257.534,383.934 256.830 C 384.060 256.126,384.413 255.343,384.719 255.090 C 385.024 254.836,385.275 253.979,385.276 253.185 C 385.277 252.391,385.546 251.228,385.873 250.601 C 386.200 249.974,386.469 248.721,386.470 247.815 C 386.471 246.910,386.740 245.656,387.067 245.029 C 387.394 244.402,387.662 243.663,387.662 243.386 C 387.662 243.110,387.930 242.661,388.259 242.388 C 388.626 242.083,388.856 241.210,388.856 240.122 C 388.856 239.079,389.101 238.106,389.453 237.754 C 389.888 237.319,390.050 236.256,390.050 233.826 C 390.050 231.994,390.207 230.397,390.400 230.279 C 390.592 230.160,390.879 227.820,391.037 225.080 C 391.195 222.339,391.485 219.997,391.682 219.876 C 391.879 219.754,392.041 218.008,392.042 215.996 C 392.044 213.530,392.238 211.967,392.639 211.198 C 393.384 209.770,393.541 184.049,392.806 183.804 C 392.571 183.726,392.279 182.502,392.156 181.085 C 392.034 179.667,391.801 178.328,391.639 178.109 C 391.477 177.891,391.222 176.865,391.072 175.830 C 390.922 174.795,390.631 173.845,390.425 173.717 C 390.219 173.590,390.050 172.342,390.050 170.945 C 390.050 169.548,389.889 168.306,389.693 168.185 C 388.755 167.605,387.662 164.629,387.662 162.654 C 387.662 161.501,387.495 160.387,387.290 160.179 C 387.086 159.971,386.792 157.617,386.638 154.947 C 386.434 151.421,386.209 150.036,385.816 149.885 C 385.414 149.731,385.274 148.755,385.274 146.128 C 385.274 143.754,385.077 142.201,384.679 141.439 C 384.352 140.812,384.083 139.996,384.082 139.625 C 384.081 139.255,383.900 138.842,383.682 138.706 C 383.463 138.571,383.284 137.597,383.284 136.543 C 383.284 135.323,383.066 134.444,382.687 134.129 C 382.358 133.857,382.090 133.129,382.090 132.512 C 382.090 131.895,381.910 131.280,381.692 131.144 C 381.473 131.009,381.292 130.506,381.291 130.026 C 381.290 129.547,381.021 128.641,380.694 128.014 C 380.367 127.387,380.100 126.535,380.100 126.119 C 380.100 125.704,379.294 123.836,378.308 121.969 C 377.323 120.101,376.517 118.155,376.517 117.644 C 376.517 117.133,376.249 116.491,375.920 116.219 C 375.592 115.946,375.323 115.503,375.323 115.234 C 375.323 114.595,373.416 110.962,372.809 110.445 C 371.999 109.754,369.751 105.122,369.751 104.142 C 369.751 103.628,369.372 102.867,368.908 102.450 C 368.443 102.033,367.618 100.706,367.072 99.502 C 366.527 98.299,365.751 96.953,365.349 96.513 C 364.947 96.073,363.623 93.756,362.408 91.364 C 361.193 88.973,359.875 86.646,359.481 86.194 C 359.086 85.743,358.294 84.384,357.722 83.175 C 357.150 81.967,356.309 80.640,355.853 80.228 C 355.398 79.816,355.025 79.148,355.025 78.744 C 355.025 78.340,354.846 78.010,354.627 78.010 C 354.408 78.010,354.229 77.765,354.229 77.467 C 354.229 77.168,353.871 76.468,353.433 75.911 C 352.995 75.355,352.637 74.645,352.637 74.335 C 352.637 74.025,352.189 73.350,351.642 72.836 C 351.095 72.322,350.647 71.637,350.647 71.315 C 350.647 70.993,349.841 69.868,348.856 68.815 C 347.871 67.761,347.065 66.668,347.065 66.385 C 347.065 66.101,346.080 64.820,344.876 63.536 C 343.672 62.253,342.687 60.994,342.687 60.739 C 342.687 60.141,325.082 42.587,324.482 42.587 C 324.233 42.587,323.441 42.050,322.722 41.393 C 322.003 40.736,321.135 40.199,320.793 40.199 C 320.451 40.199,319.199 39.214,318.010 38.010 C 316.821 36.806,315.674 35.821,315.462 35.821 C 315.250 35.821,314.226 35.104,313.188 34.229 C 312.150 33.353,311.041 32.637,310.724 32.637 C 310.407 32.637,309.924 32.368,309.652 32.040 C 309.379 31.711,308.820 31.443,308.409 31.443 C 307.998 31.443,307.662 31.306,307.662 31.139 C 307.662 30.972,306.721 30.399,305.572 29.866 C 304.423 29.332,302.894 28.395,302.175 27.782 C 301.456 27.168,300.485 26.667,300.017 26.667 C 299.550 26.667,298.884 26.414,298.539 26.106 C 297.673 25.333,294.123 23.483,293.506 23.483 C 293.229 23.483,292.942 23.340,292.869 23.166 C 292.671 22.695,289.429 21.095,288.672 21.095 C 288.146 21.095,283.423 18.903,280.199 17.162 C 278.373 16.177,277.768 15.920,277.268 15.920 C 276.964 15.920,276.491 15.652,276.219 15.323 C 275.946 14.995,275.409 14.726,275.025 14.726 C 274.641 14.726,274.103 14.458,273.831 14.129 C 273.558 13.801,272.725 13.532,271.979 13.532 C 271.140 13.532,270.534 13.304,270.393 12.935 C 270.226 12.501,269.544 12.338,267.894 12.338 C 266.515 12.338,265.322 12.109,264.852 11.754 C 264.227 11.281,262.362 11.167,255.074 11.157 C 247.565 11.146,245.985 11.045,245.572 10.547 C 245.208 10.108,244.239 9.950,241.903 9.950 C 239.861 9.950,238.318 9.737,237.574 9.353 C 236.938 9.025,235.898 8.488,235.262 8.159 C 233.599 7.301,164.336 7.251,163.624 8.108 M183.631 74.567 C 183.850 75.438,184.116 75.519,187.536 75.762 C 189.555 75.905,191.385 76.201,191.603 76.419 C 191.822 76.637,193.268 76.816,194.817 76.816 C 196.600 76.816,197.929 77.022,198.437 77.379 C 198.879 77.688,199.770 78.002,200.416 78.075 C 201.249 78.170,201.627 78.451,201.710 79.036 C 201.840 79.946,204.197 81.190,205.805 81.199 C 207.556 81.209,208.510 81.657,208.634 82.528 C 208.723 83.147,209.085 83.420,209.950 83.518 C 210.607 83.592,211.378 83.846,211.663 84.081 C 211.948 84.317,212.843 84.617,213.653 84.748 C 214.754 84.926,215.155 85.198,215.245 85.829 C 215.384 86.795,217.510 88.850,218.701 89.171 C 219.142 89.289,219.556 89.757,219.622 90.210 C 219.688 90.664,220.271 91.541,220.916 92.159 C 221.561 92.777,222.090 93.608,222.090 94.005 C 222.090 94.416,222.378 94.726,222.760 94.726 C 223.575 94.726,225.274 96.253,225.274 96.985 C 225.274 97.642,226.700 99.104,227.341 99.104 C 228.185 99.104,230.050 101.215,230.050 102.169 C 230.050 102.679,230.208 103.406,230.401 103.786 C 231.342 105.635,231.744 106.676,231.995 107.909 C 232.189 108.862,232.513 109.289,233.108 109.376 C 233.977 109.502,234.413 110.469,234.422 112.293 C 234.425 112.870,234.695 113.855,235.022 114.482 C 235.349 115.109,235.618 116.193,235.619 116.892 C 235.621 117.590,235.801 118.273,236.020 118.408 C 236.239 118.543,236.418 119.345,236.418 120.190 C 236.418 122.211,236.746 122.985,237.605 122.985 C 238.538 122.985,238.806 124.454,238.806 129.579 C 238.806 131.837,238.962 133.781,239.152 133.898 C 239.342 134.016,239.623 135.546,239.776 137.298 C 239.928 139.050,240.221 140.587,240.425 140.713 C 240.629 140.839,240.796 141.385,240.796 141.927 C 240.796 142.518,241.074 142.995,241.493 143.122 C 241.876 143.239,242.726 143.588,243.383 143.898 C 244.040 144.208,245.734 144.510,247.148 144.569 C 249.524 144.668,249.736 144.752,249.950 145.672 C 250.106 146.342,250.502 146.712,251.161 146.804 C 251.699 146.880,252.327 147.096,252.557 147.284 C 252.787 147.473,253.754 147.751,254.707 147.904 C 256.479 148.187,257.910 149.216,257.910 150.206 C 257.910 150.840,258.755 151.244,260.083 151.244 C 260.586 151.244,261.220 151.512,261.493 151.841 C 261.765 152.169,262.324 152.438,262.735 152.438 C 263.193 152.438,263.483 152.719,263.483 153.164 C 263.483 154.038,264.966 155.486,266.065 155.686 C 266.500 155.765,266.921 156.186,267.000 156.621 C 267.242 157.949,268.693 159.204,269.988 159.204 C 271.230 159.204,272.637 160.164,272.637 161.011 C 272.637 161.281,272.904 162.014,273.231 162.641 C 273.558 163.268,273.827 164.184,273.828 164.677 C 273.830 165.250,274.072 165.572,274.502 165.572 C 275.493 165.572,277.015 167.168,277.015 168.209 C 277.015 168.707,277.264 169.258,277.568 169.433 C 277.872 169.608,278.187 170.109,278.268 170.547 C 278.351 170.992,278.788 171.397,279.260 171.464 C 279.899 171.556,280.164 171.957,280.348 173.112 C 280.483 173.952,280.862 174.743,281.192 174.869 C 281.521 174.996,281.791 175.338,281.791 175.630 C 281.791 176.849,282.821 178.278,283.781 178.391 C 284.507 178.476,284.808 178.777,284.892 179.502 C 284.956 180.050,285.166 180.856,285.359 181.294 C 285.552 181.731,285.800 182.881,285.911 183.849 C 286.027 184.864,286.376 185.756,286.737 185.958 C 287.082 186.151,287.363 186.735,287.363 187.256 C 287.363 187.935,287.616 188.239,288.259 188.331 C 289.045 188.442,289.188 188.768,289.435 191.008 C 289.590 192.410,289.904 193.744,290.132 193.973 C 290.360 194.201,290.547 194.689,290.547 195.056 C 290.547 195.423,290.809 195.940,291.128 196.206 C 291.523 196.533,291.746 197.665,291.825 199.737 C 291.930 202.510,292.018 202.797,292.795 202.908 C 293.707 203.038,294.115 203.990,294.124 206.012 C 294.127 206.772,294.512 207.660,295.124 208.321 C 295.981 209.245,296.119 209.767,296.119 212.080 C 296.119 213.557,296.299 214.946,296.519 215.165 C 296.738 215.385,297.051 217.704,297.215 220.320 C 297.484 224.626,297.592 225.109,298.353 225.444 C 299.242 225.834,299.694 229.413,299.699 236.096 C 299.701 237.561,299.855 238.854,300.043 238.970 C 300.231 239.087,300.475 243.048,300.584 247.773 C 300.714 253.435,300.937 256.519,301.237 256.819 C 301.793 257.375,301.872 267.914,301.324 268.478 C 301.122 268.686,300.828 272.572,300.671 277.114 C 300.514 281.657,300.231 285.373,300.043 285.373 C 299.855 285.373,299.700 286.940,299.699 288.856 C 299.694 295.825,299.291 298.850,298.351 298.985 C 297.636 299.087,297.465 299.487,297.194 301.692 C 297.019 303.114,296.705 304.449,296.497 304.657 C 296.289 304.865,296.119 305.448,296.119 305.954 C 296.119 306.459,295.582 307.614,294.925 308.521 C 294.269 309.427,293.731 310.667,293.731 311.276 C 293.731 312.120,293.519 312.413,292.836 312.510 C 292.158 312.606,291.911 312.940,291.819 313.881 C 291.753 314.566,291.260 315.537,290.725 316.040 C 290.189 316.543,289.751 317.246,289.751 317.602 C 289.751 318.367,288.997 319.204,288.307 319.204 C 287.574 319.204,285.093 321.679,284.919 322.584 C 284.835 323.019,284.418 323.441,283.992 323.523 C 282.578 323.796,281.393 324.841,281.393 325.817 C 281.393 326.649,281.208 326.766,279.898 326.766 C 279.076 326.766,277.777 326.968,277.012 327.215 C 276.248 327.462,274.726 327.776,273.632 327.912 C 272.000 328.115,271.620 328.312,271.521 329.007 C 271.428 329.656,271.030 329.915,269.829 330.107 C 268.965 330.245,268.259 330.509,268.259 330.694 C 268.259 330.879,266.806 331.130,265.030 331.252 C 263.254 331.374,261.606 331.668,261.368 331.906 C 260.264 333.009,254.957 332.379,252.790 330.887 C 252.710 330.832,252.524 330.202,252.378 329.488 C 252.186 328.545,251.844 328.125,251.131 327.957 C 249.748 327.631,249.576 320.713,250.945 320.462 C 251.383 320.382,252.010 320.084,252.338 319.801 C 252.667 319.518,253.286 319.222,253.714 319.143 C 254.152 319.063,254.595 318.566,254.727 318.008 L 254.961 317.015 260.896 317.015 L 266.830 317.015 267.065 318.010 C 267.402 319.437,272.358 319.563,272.560 318.150 C 272.690 317.238,273.642 316.830,275.660 316.821 C 276.968 316.816,278.035 315.926,278.269 314.644 C 278.348 314.216,278.769 313.768,279.206 313.649 C 280.664 313.252,281.791 312.256,281.791 311.365 C 281.791 310.667,282.091 310.427,283.239 310.212 C 285.071 309.869,286.169 308.782,286.169 307.312 C 286.169 306.683,286.428 305.952,286.744 305.690 C 287.060 305.428,287.374 304.562,287.440 303.767 C 287.539 302.598,287.753 302.275,288.557 302.088 C 289.511 301.866,289.557 301.718,289.656 298.491 C 289.712 296.639,289.922 294.766,290.122 294.328 C 290.321 293.891,290.585 291.764,290.708 289.602 C 290.830 287.440,291.106 285.460,291.321 285.201 C 291.536 284.942,291.763 282.868,291.826 280.591 C 291.938 276.544,291.962 276.447,292.935 276.218 L 293.930 275.984 293.930 266.052 C 293.930 256.250,293.919 256.118,293.090 256.000 C 292.154 255.866,291.750 253.371,291.744 247.685 C 291.743 246.111,291.588 244.728,291.401 244.613 C 291.213 244.497,290.930 241.218,290.771 237.327 C 290.612 233.435,290.323 230.061,290.130 229.828 C 289.937 229.595,289.728 227.375,289.665 224.894 C 289.564 220.861,289.468 220.337,288.756 219.943 C 287.542 219.271,287.376 218.876,287.369 216.640 C 287.366 215.504,287.202 214.475,287.004 214.353 C 286.807 214.231,286.518 213.011,286.363 211.643 C 286.208 210.274,285.915 208.949,285.713 208.699 C 285.511 208.448,285.238 207.338,285.107 206.232 C 284.912 204.579,284.719 204.199,284.027 204.100 C 283.337 204.002,283.161 203.660,283.058 202.219 C 282.989 201.250,282.676 200.091,282.362 199.643 C 282.048 199.195,281.791 198.341,281.791 197.746 C 281.791 197.151,281.624 196.561,281.421 196.435 C 281.217 196.309,280.929 195.234,280.781 194.046 C 280.556 192.244,280.369 191.865,279.658 191.763 C 279.046 191.676,278.768 191.311,278.672 190.466 C 278.599 189.820,278.285 188.929,277.976 188.487 C 277.666 188.045,277.413 187.208,277.413 186.627 C 277.413 186.046,277.154 185.355,276.838 185.093 C 276.522 184.831,276.209 183.960,276.142 183.157 C 276.055 182.114,275.811 181.659,275.287 181.559 C 274.255 181.363,273.035 180.044,273.035 179.124 C 273.035 178.697,272.782 178.205,272.473 178.030 C 272.164 177.855,271.750 177.085,271.553 176.319 C 271.330 175.455,270.912 174.872,270.452 174.784 C 269.524 174.605,268.290 173.163,268.272 172.239 C 268.255 171.341,266.868 169.954,265.970 169.937 C 265.073 169.920,263.483 168.596,263.483 167.866 C 263.483 167.556,263.044 166.891,262.509 166.388 C 261.973 165.885,261.481 165.092,261.414 164.627 C 261.338 164.093,260.955 163.733,260.374 163.651 C 259.868 163.579,259.360 163.277,259.246 162.979 C 259.132 162.681,258.516 162.322,257.877 162.182 C 257.080 162.007,256.716 161.684,256.716 161.153 C 256.716 160.727,256.313 160.204,255.821 159.991 C 255.328 159.778,254.657 159.445,254.328 159.251 C 254.000 159.057,253.194 158.678,252.537 158.408 C 250.391 157.527,250.151 157.342,250.022 156.477 C 249.946 155.964,249.607 155.622,249.175 155.622 C 248.779 155.622,248.239 155.360,247.974 155.041 C 247.647 154.647,246.516 154.423,244.459 154.344 C 241.593 154.235,241.414 154.174,241.193 153.234 C 240.862 151.826,237.091 151.703,236.893 153.094 C 236.740 154.170,235.823 154.416,231.940 154.422 C 230.153 154.426,228.856 154.595,228.856 154.826 C 228.856 155.045,228.396 155.224,227.835 155.224 C 226.400 155.224,225.274 155.915,225.274 156.795 C 225.274 157.356,224.878 157.609,223.684 157.811 C 222.809 157.958,221.993 158.243,221.869 158.443 C 221.746 158.642,221.319 158.806,220.921 158.806 C 220.523 158.806,219.983 159.064,219.721 159.380 C 219.459 159.696,218.677 160.009,217.984 160.076 C 217.123 160.160,216.678 160.437,216.581 160.948 C 216.417 161.811,214.578 163.551,213.810 163.570 C 213.525 163.576,213.114 164.094,212.896 164.719 C 212.478 165.918,211.394 166.656,209.768 166.849 C 209.180 166.919,208.703 167.289,208.574 167.775 C 208.253 168.980,205.753 171.542,204.899 171.542 C 204.489 171.542,204.057 171.856,203.939 172.239 C 203.820 172.622,203.557 173.246,203.354 173.626 C 203.151 174.007,202.985 174.713,202.985 175.197 C 202.985 176.273,201.114 178.308,200.125 178.308 C 199.599 178.308,199.403 178.612,199.403 179.426 C 199.403 180.041,199.140 180.892,198.819 181.317 C 198.497 181.742,198.229 182.650,198.222 183.334 C 198.215 184.019,197.940 184.802,197.612 185.075 C 197.284 185.347,197.015 186.076,197.015 186.694 C 197.015 187.527,196.733 187.952,195.920 188.339 C 195.195 188.686,194.784 189.226,194.701 189.942 C 194.632 190.535,194.157 191.809,193.645 192.772 C 193.040 193.910,192.615 195.588,192.429 197.566 C 192.273 199.239,191.986 200.706,191.793 200.825 C 191.601 200.944,191.443 201.733,191.443 202.578 C 191.443 204.599,191.114 205.373,190.256 205.373 C 189.521 205.373,189.055 206.785,189.055 209.010 C 189.055 209.643,188.885 210.471,188.677 210.851 C 188.469 211.231,188.190 212.389,188.057 213.424 C 187.924 214.458,187.646 215.409,187.440 215.537 C 187.233 215.664,187.062 216.250,187.059 216.839 C 187.050 218.710,186.619 219.627,185.634 219.874 C 184.724 220.103,184.677 220.271,184.677 223.242 C 184.677 225.537,184.518 226.502,184.080 226.866 C 183.650 227.222,183.483 228.164,183.483 230.218 C 183.483 231.973,183.291 233.267,182.985 233.572 C 182.596 233.961,182.488 240.443,182.488 263.284 C 182.488 286.124,182.596 292.606,182.985 292.995 C 183.259 293.269,183.483 294.062,183.483 294.757 C 183.483 295.453,183.742 296.237,184.059 296.500 C 184.376 296.764,184.690 297.808,184.756 298.822 C 184.859 300.415,185.010 300.696,185.871 300.895 C 186.675 301.082,186.889 301.404,186.987 302.572 C 187.054 303.368,187.368 304.234,187.684 304.496 C 188.000 304.758,188.259 305.519,188.259 306.187 C 188.259 307.559,189.235 308.856,190.268 308.856 C 191.024 308.856,191.443 309.622,191.443 311.003 C 191.443 311.491,191.980 312.406,192.637 313.035 C 193.294 313.664,193.831 314.414,193.831 314.701 C 193.831 315.611,195.320 316.757,196.674 316.888 C 197.688 316.987,198.030 317.236,198.211 318.010 L 198.444 319.005 203.401 319.005 C 208.154 319.005,208.363 318.970,208.479 318.158 C 208.748 316.275,219.506 316.261,219.780 318.144 C 219.853 318.648,220.290 319.063,220.896 319.204 C 221.514 319.348,221.938 319.759,222.015 320.290 C 222.091 320.816,222.474 321.193,223.010 321.269 C 224.304 321.453,224.376 330.045,223.085 330.288 C 222.647 330.370,222.145 330.686,221.970 330.990 C 221.767 331.342,220.948 331.542,219.705 331.542 C 218.634 331.542,217.648 331.721,217.512 331.940 C 217.192 332.459,212.261 332.459,211.940 331.940 C 211.805 331.721,211.033 331.541,210.225 331.540 C 209.417 331.538,208.243 331.270,207.616 330.943 C 206.989 330.616,205.915 330.346,205.228 330.342 C 203.813 330.335,203.370 330.088,202.745 328.955 C 202.416 328.359,201.718 328.092,199.959 327.890 C 195.594 327.388,192.850 326.577,192.690 325.740 C 192.512 324.803,191.923 324.392,190.746 324.384 C 189.796 324.378,188.259 323.102,188.259 322.320 C 188.259 321.625,187.029 320.398,186.332 320.398 C 185.392 320.398,183.881 318.772,183.881 317.761 C 183.881 317.263,183.627 316.712,183.318 316.537 C 183.009 316.362,182.695 315.682,182.622 315.025 C 182.523 314.147,182.254 313.798,181.605 313.705 C 180.940 313.611,180.655 313.219,180.448 312.117 C 180.297 311.312,179.762 309.878,179.258 308.930 C 178.754 307.983,178.220 306.132,178.071 304.817 C 177.843 302.797,177.655 302.371,176.861 302.069 C 176.021 301.749,175.920 301.463,175.920 299.393 C 175.920 298.118,175.731 296.885,175.499 296.654 C 175.268 296.422,174.975 295.177,174.849 293.888 C 174.722 292.598,174.419 291.290,174.175 290.983 C 173.516 290.152,173.549 233.974,174.208 233.179 C 174.471 232.863,174.810 230.950,174.963 228.927 C 175.116 226.904,175.393 225.154,175.580 225.039 C 175.767 224.923,175.920 223.581,175.920 222.056 C 175.920 219.514,175.998 219.254,176.854 218.929 C 177.688 218.612,177.816 218.242,178.050 215.474 C 178.194 213.769,178.490 212.196,178.708 211.978 C 178.926 211.760,179.104 210.731,179.104 209.691 C 179.104 208.463,179.304 207.689,179.676 207.481 C 180.020 207.288,180.297 206.379,180.372 205.189 C 180.482 203.458,180.620 203.188,181.493 202.985 C 182.410 202.771,182.497 202.553,182.608 200.198 C 182.675 198.792,182.874 197.456,183.051 197.229 C 183.229 197.002,183.491 196.047,183.635 195.107 C 183.778 194.167,184.062 193.092,184.266 192.719 C 184.469 192.345,184.744 191.200,184.876 190.174 C 185.071 188.658,185.277 188.285,185.976 188.184 C 186.592 188.095,186.913 187.681,187.107 186.729 C 187.256 185.998,187.576 185.201,187.818 184.958 C 188.060 184.716,188.259 183.948,188.259 183.253 C 188.259 182.557,188.527 181.765,188.856 181.493 C 189.184 181.220,189.455 180.347,189.459 179.553 C 189.466 177.826,189.783 177.257,190.846 177.057 C 191.326 176.967,191.696 176.528,191.777 175.951 C 191.852 175.425,192.165 174.743,192.474 174.434 C 192.782 174.126,193.035 173.448,193.035 172.927 C 193.035 172.407,193.483 171.498,194.030 170.908 C 194.577 170.317,195.025 169.427,195.025 168.930 C 195.025 167.570,195.436 166.766,196.131 166.766 C 196.982 166.766,198.209 165.595,198.209 164.784 C 198.209 163.962,199.725 162.517,200.791 162.324 C 201.227 162.245,201.647 161.824,201.725 161.388 C 201.920 160.303,204.112 158.076,205.129 157.930 C 205.592 157.864,206.026 157.457,206.107 157.015 C 206.342 155.720,207.397 154.830,209.001 154.573 C 210.106 154.397,210.536 154.119,210.625 153.526 C 210.755 152.657,211.033 152.460,213.632 151.389 C 214.732 150.936,215.323 150.444,215.323 149.981 C 215.323 149.553,215.721 149.169,216.318 149.019 C 216.866 148.882,217.313 148.610,217.313 148.415 C 217.313 148.219,217.811 148.060,218.419 148.060 C 219.027 148.060,219.887 147.806,220.330 147.496 C 220.773 147.185,221.788 146.809,222.585 146.659 C 223.658 146.458,224.066 146.165,224.157 145.532 C 224.232 145.006,224.613 144.629,225.145 144.553 C 225.622 144.485,226.226 144.172,226.487 143.857 C 226.749 143.541,227.389 143.284,227.909 143.284 C 228.640 143.284,228.856 143.068,228.856 142.337 C 228.856 141.817,229.124 141.168,229.453 140.896 C 229.781 140.623,230.050 139.806,230.050 139.079 C 230.050 138.353,230.229 137.648,230.448 137.512 C 230.667 137.377,230.846 136.392,230.846 135.323 C 230.846 134.255,230.667 133.270,230.448 133.134 C 230.229 132.999,230.050 132.294,230.050 131.568 C 230.050 130.841,229.788 130.030,229.469 129.765 C 229.074 129.437,228.851 128.305,228.772 126.233 C 228.667 123.447,228.582 123.173,227.790 123.061 C 227.034 122.953,226.888 122.600,226.640 120.290 C 226.485 118.835,226.113 117.400,225.815 117.102 C 225.517 116.804,225.274 116.325,225.274 116.037 C 225.274 115.749,225.006 115.001,224.679 114.374 C 224.352 113.747,224.083 112.652,224.082 111.940 C 224.080 110.949,223.908 110.647,223.345 110.647 C 222.321 110.647,221.441 109.514,221.134 107.801 C 220.991 107.002,220.611 106.130,220.288 105.862 C 219.965 105.594,219.701 105.039,219.701 104.628 C 219.701 104.192,219.422 103.881,219.031 103.881 C 218.178 103.881,216.517 102.340,216.517 101.548 C 216.517 100.703,214.926 99.104,214.083 99.104 C 213.697 99.104,213.263 98.914,213.119 98.682 C 212.976 98.450,212.441 98.101,211.932 97.907 C 211.411 97.709,210.949 97.156,210.876 96.642 C 210.798 96.095,210.427 95.679,209.950 95.603 C 208.452 95.365,206.567 94.155,206.567 93.429 C 206.567 93.034,206.254 92.616,205.871 92.499 C 205.488 92.383,204.637 92.036,203.980 91.729 C 203.323 91.421,202.071 91.119,201.197 91.058 C 200.023 90.975,199.572 90.754,199.470 90.213 C 199.197 88.775,197.914 87.960,195.920 87.958 C 194.881 87.956,193.528 87.693,192.914 87.373 C 192.301 87.053,190.206 86.671,188.258 86.524 C 185.060 86.283,184.706 86.176,184.598 85.417 C 184.412 84.115,176.186 84.114,176.000 85.415 C 175.884 86.223,175.599 86.264,168.331 86.537 C 163.047 86.736,160.456 86.991,159.694 87.388 C 159.096 87.700,157.686 87.956,156.560 87.958 C 155.150 87.959,154.445 88.138,154.294 88.532 C 154.170 88.854,153.414 89.158,152.560 89.228 C 151.338 89.329,151.020 89.527,150.918 90.249 C 150.815 90.971,150.536 91.144,149.474 91.144 C 148.750 91.144,147.943 91.402,147.682 91.717 C 147.420 92.033,146.816 92.346,146.339 92.414 C 145.784 92.493,145.426 92.868,145.342 93.457 C 145.271 93.963,144.912 94.478,144.546 94.600 C 141.519 95.616,140.979 96.037,140.733 97.571 C 140.525 98.874,140.339 99.104,139.498 99.104 C 138.953 99.104,138.507 99.280,138.507 99.495 C 138.507 99.710,138.060 99.998,137.512 100.135 C 136.942 100.278,136.517 100.672,136.517 101.058 C 136.517 101.921,135.751 102.687,134.888 102.687 C 134.165 102.687,133.731 103.458,133.731 104.745 C 133.731 105.812,132.202 107.035,130.846 107.051 C 130.045 107.061,129.751 107.265,129.751 107.812 C 129.751 108.223,129.498 108.769,129.189 109.026 C 128.879 109.283,128.503 110.424,128.352 111.562 C 128.177 112.886,127.747 113.990,127.159 114.627 C 126.439 115.406,126.180 116.285,125.961 118.685 C 125.714 121.398,125.585 121.761,124.836 121.869 C 123.967 121.993,123.943 122.063,122.984 127.131 C 122.781 128.207,122.429 129.273,122.203 129.499 C 121.976 129.725,121.790 130.904,121.788 132.119 C 121.782 137.165,121.345 139.652,120.442 139.781 C 119.618 139.898,119.600 140.079,119.495 149.308 L 119.389 158.715 120.868 158.992 C 121.682 159.145,122.710 159.524,123.153 159.834 C 123.596 160.144,124.635 160.398,125.462 160.398 C 126.644 160.398,126.965 160.551,126.965 161.114 C 126.965 162.071,127.731 162.786,128.756 162.786 C 129.216 162.786,129.762 162.951,129.970 163.153 C 130.178 163.356,130.884 163.579,131.539 163.651 C 132.355 163.740,132.776 164.031,132.878 164.577 C 133.059 165.544,133.638 165.956,134.826 165.964 C 136.052 165.972,137.312 167.333,137.320 168.657 C 137.329 170.118,138.876 171.542,140.454 171.542 C 141.564 171.542,141.692 171.666,141.692 172.736 C 141.692 173.400,142.045 174.284,142.488 174.726 C 142.925 175.164,143.284 175.795,143.284 176.129 C 143.284 176.463,143.731 176.906,144.279 177.114 C 144.970 177.377,145.274 177.793,145.274 178.477 C 145.274 179.018,145.766 180.321,146.368 181.372 L 147.463 183.284 147.463 196.982 C 147.463 207.587,147.350 210.718,146.965 210.846 C 146.692 210.937,146.468 211.567,146.468 212.246 C 146.468 213.645,145.127 215.323,144.010 215.323 C 143.453 215.323,143.284 215.631,143.284 216.642 C 143.284 217.582,142.947 218.283,142.110 219.085 C 141.465 219.703,140.883 220.586,140.817 221.046 C 140.750 221.513,140.345 221.946,139.900 222.026 C 138.871 222.211,137.313 223.650,137.313 224.416 C 137.313 225.219,136.141 226.468,135.387 226.468 C 134.587 226.468,132.935 228.035,132.935 228.794 C 132.935 229.761,131.697 230.845,130.585 230.852 C 129.263 230.860,128.687 231.243,128.500 232.239 C 128.383 232.867,127.982 233.061,126.593 233.161 C 125.627 233.230,124.469 233.543,124.021 233.857 C 122.802 234.711,108.970 234.688,108.259 233.831 C 107.900 233.399,106.950 233.234,104.817 233.234 C 102.011 233.234,101.852 233.185,101.478 232.200 C 101.262 231.632,100.741 231.077,100.321 230.967 C 99.901 230.857,99.461 230.516,99.344 230.210 C 99.225 229.901,98.591 229.652,97.923 229.652 C 96.901 229.652,96.716 229.499,96.716 228.657 C 96.716 227.959,96.500 227.662,95.990 227.662 C 95.590 227.662,94.842 227.214,94.328 226.667 C 93.814 226.119,93.102 225.672,92.747 225.672 C 91.888 225.672,91.144 224.890,91.144 223.988 C 91.144 223.587,90.889 223.161,90.578 223.041 C 90.267 222.922,89.716 222.200,89.354 221.438 C 88.992 220.675,88.396 219.945,88.030 219.816 C 86.712 219.350,85.970 218.372,85.970 217.101 C 85.970 216.396,85.706 215.600,85.384 215.332 C 85.061 215.064,84.683 214.237,84.543 213.492 C 84.361 212.521,84.078 212.139,83.538 212.139 C 82.935 212.139,82.786 211.844,82.784 210.647 C 82.782 209.826,82.514 208.641,82.187 208.014 C 81.491 206.680,81.296 188.714,81.971 188.039 C 82.179 187.831,82.403 186.320,82.468 184.680 C 82.573 182.063,82.684 181.682,83.383 181.555 C 84.703 181.315,85.572 180.258,85.572 178.893 C 85.572 178.187,85.830 177.396,86.145 177.134 C 86.460 176.873,86.774 176.270,86.842 175.796 C 86.912 175.305,87.308 174.871,87.761 174.789 C 88.811 174.598,89.950 173.563,89.950 172.800 C 89.950 171.997,91.519 170.348,92.283 170.348 C 93.079 170.348,94.726 168.776,94.726 168.016 C 94.726 166.896,96.381 165.572,97.781 165.572 C 98.794 165.572,99.104 165.403,99.104 164.851 C 99.104 164.454,99.642 163.614,100.299 162.985 C 100.955 162.356,101.493 161.516,101.493 161.120 C 101.493 160.511,101.851 160.392,103.781 160.358 C 109.093 160.266,109.442 159.537,109.482 148.473 C 109.518 138.297,110.353 132.011,111.694 131.820 C 112.430 131.714,112.573 131.344,112.811 128.934 C 112.960 127.413,113.251 126.169,113.457 126.169 C 113.663 126.169,113.831 125.134,113.831 123.870 C 113.831 122.508,114.066 121.235,114.406 120.749 C 114.723 120.297,115.036 118.869,115.103 117.576 C 115.211 115.483,115.323 115.210,116.119 115.097 C 116.842 114.994,117.015 114.715,117.015 113.653 C 117.015 112.929,117.284 112.113,117.612 111.841 C 117.940 111.568,118.209 111.031,118.209 110.647 C 118.209 110.263,118.455 109.744,118.756 109.494 C 119.057 109.244,119.416 108.339,119.553 107.483 C 119.747 106.265,119.996 105.898,120.697 105.799 C 121.378 105.702,121.621 105.369,121.715 104.408 C 121.782 103.713,122.095 102.929,122.411 102.667 C 122.727 102.405,122.985 101.676,122.985 101.046 C 122.985 99.715,124.111 98.429,125.441 98.241 C 126.103 98.147,126.403 97.811,126.489 97.064 C 126.556 96.489,127.049 95.607,127.584 95.104 C 128.119 94.601,128.557 93.919,128.557 93.588 C 128.557 92.732,130.153 91.144,131.015 91.144 C 131.465 91.144,131.741 90.855,131.741 90.382 C 131.741 89.489,134.506 87.167,135.580 87.158 C 136.615 87.150,137.196 86.700,137.372 85.772 C 137.480 85.201,137.999 84.876,139.209 84.621 C 140.137 84.425,140.896 84.111,140.896 83.924 C 140.896 83.736,141.218 83.582,141.612 83.582 C 142.529 83.582,143.284 82.827,143.284 81.910 C 143.284 81.362,143.599 81.194,144.628 81.194 C 145.367 81.194,146.195 80.925,146.468 80.597 C 146.784 80.216,147.664 80.000,148.904 80.000 C 150.509 80.000,150.846 79.876,150.846 79.284 C 150.846 78.210,151.649 77.612,153.091 77.612 C 153.800 77.612,154.492 77.433,154.627 77.214 C 154.762 76.995,156.307 76.816,158.060 76.816 C 159.812 76.816,161.626 76.613,162.090 76.364 C 162.554 76.116,164.289 75.802,165.945 75.668 C 168.676 75.446,168.967 75.340,169.082 74.527 C 169.209 73.637,169.250 73.632,176.303 73.632 L 183.396 73.632 183.631 74.567 M109.055 169.751 C 108.758 170.109,107.888 170.348,106.886 170.348 C 105.209 170.348,103.483 171.522,103.483 172.662 C 103.483 172.922,103.049 173.134,102.518 173.134 C 101.295 173.134,99.195 174.878,99.031 176.029 C 98.959 176.535,98.568 176.969,98.109 177.052 C 96.884 177.275,96.024 178.230,95.754 179.667 C 95.594 180.519,95.174 181.125,94.546 181.412 C 93.819 181.743,93.552 182.217,93.458 183.347 C 93.356 184.569,93.150 184.887,92.338 185.075 C 91.576 185.251,91.315 185.597,91.221 186.553 C 91.153 187.240,90.840 188.016,90.524 188.278 C 90.135 188.601,89.950 189.564,89.950 191.269 C 89.950 192.652,89.771 193.895,89.552 194.030 C 89.333 194.165,89.154 194.882,89.154 195.622 C 89.154 196.362,89.333 197.079,89.552 197.214 C 89.771 197.349,89.950 199.039,89.950 200.970 C 89.950 203.539,90.104 204.607,90.523 204.955 C 90.839 205.217,91.152 205.821,91.220 206.298 C 91.298 206.844,91.674 207.211,92.239 207.291 C 92.939 207.391,93.188 207.757,93.383 208.975 C 93.520 209.832,93.878 210.737,94.179 210.986 C 94.480 211.236,94.726 212.011,94.726 212.707 C 94.726 214.102,96.669 216.327,98.109 216.583 C 98.554 216.662,98.958 217.094,99.025 217.561 C 99.091 218.021,99.674 218.904,100.319 219.522 C 100.964 220.140,101.493 220.971,101.493 221.368 C 101.493 221.809,101.784 222.090,102.240 222.090 C 102.651 222.090,103.210 222.358,103.483 222.687 C 103.791 223.058,104.674 223.286,105.820 223.289 C 108.446 223.297,109.390 223.635,109.530 224.618 C 109.719 225.944,119.136 225.952,119.325 224.626 C 119.426 223.918,119.783 223.746,121.497 223.582 C 122.625 223.473,123.616 223.183,123.698 222.936 C 123.780 222.689,124.292 222.488,124.835 222.488 C 126.232 222.488,127.363 221.791,127.363 220.930 C 127.363 219.924,128.321 219.217,130.066 218.933 C 131.106 218.764,131.578 218.464,131.684 217.904 C 131.767 217.470,132.440 216.442,133.181 215.621 C 133.921 214.799,134.527 213.722,134.527 213.228 C 134.527 212.676,134.874 212.176,135.423 211.935 C 135.979 211.691,136.366 211.124,136.445 210.439 C 136.515 209.832,136.997 208.877,137.516 208.316 C 138.036 207.756,138.516 206.917,138.584 206.451 C 138.659 205.929,139.088 205.516,139.701 205.372 L 140.697 205.139 140.806 198.519 C 140.914 191.910,140.913 191.898,140.015 191.770 C 139.041 191.631,138.576 190.079,138.530 186.815 C 138.517 185.865,138.256 184.963,137.910 184.677 C 137.582 184.404,137.313 183.666,137.313 183.036 C 137.313 181.799,136.237 180.456,135.066 180.231 C 134.665 180.153,134.272 179.752,134.193 179.339 C 134.113 178.926,133.547 178.122,132.934 177.552 C 132.321 176.983,131.755 176.161,131.677 175.726 C 131.598 175.291,131.177 174.868,130.742 174.787 C 129.764 174.606,128.687 173.508,128.495 172.498 C 128.391 171.945,127.817 171.634,126.365 171.343 C 125.272 171.124,124.125 170.782,123.815 170.583 C 123.505 170.383,121.934 170.136,120.323 170.032 C 118.712 169.929,117.299 169.689,117.181 169.499 C 116.884 169.019,113.137 169.065,112.836 169.552 C 112.701 169.771,112.163 169.950,111.642 169.950 C 111.120 169.950,110.583 169.771,110.448 169.552 C 110.101 168.990,109.630 169.058,109.055 169.751 M118.859 182.991 C 119.108 183.152,119.378 183.642,119.460 184.080 C 119.569 184.662,119.982 184.911,120.998 185.006 C 122.969 185.191,123.846 186.112,123.701 187.840 L 123.582 189.254 120.481 189.370 C 117.604 189.478,117.353 189.557,117.008 190.465 C 116.703 191.269,116.365 191.443,115.111 191.443 C 114.272 191.443,113.237 191.706,112.812 192.027 C 112.387 192.349,111.659 192.617,111.193 192.624 C 110.088 192.641,109.270 194.562,109.622 196.313 C 109.765 197.027,110.010 198.328,110.165 199.204 C 110.386 200.446,110.645 200.824,111.343 200.923 C 111.906 201.003,112.239 201.326,112.239 201.792 C 112.239 203.425,114.235 204.179,118.560 204.179 C 122.414 204.179,122.594 204.218,123.231 205.190 C 124.185 206.646,123.482 208.030,121.611 208.381 C 119.189 208.835,108.542 208.412,108.356 207.853 C 108.266 207.584,107.760 207.363,107.231 207.363 C 106.470 207.363,106.269 207.155,106.269 206.367 C 106.269 205.819,105.910 204.702,105.473 203.885 C 105.035 203.068,104.677 201.851,104.677 201.180 C 104.677 200.509,104.484 199.768,104.248 199.532 C 103.493 198.776,103.587 193.765,104.378 192.648 C 104.761 192.107,105.080 191.211,105.087 190.658 C 105.094 190.104,105.363 189.304,105.684 188.879 C 106.006 188.454,106.269 187.693,106.269 187.188 C 106.269 186.446,106.484 186.269,107.383 186.269 C 107.996 186.269,108.703 186.063,108.955 185.811 C 109.206 185.560,110.091 185.244,110.921 185.109 C 111.999 184.934,112.472 184.638,112.579 184.074 C 112.797 182.922,113.357 182.699,116.020 182.699 C 117.333 182.699,118.611 182.830,118.859 182.991 " stroke="none" fill="#fcfcfc" fill-rule="evenodd"></path><path id="path1" d="" stroke="none" fill="#100fcfc" fill-rule="evenodd"></path><path id="path2" d="" stroke="none" fill="#100fcfc" fill-rule="evenodd"></path><path id="path3" d="" stroke="none" fill="#100fcfc" fill-rule="evenodd"></path><path id="path4" d="" stroke="none" fill="#100fcfc" fill-rule="evenodd"></path></g></svg>